<svg id="Layer_1" data-name="Layer 1" xmlns="http://www.w3.org/2000/svg" viewBox="0 0 686.11 165.53"><title>Tamara</title><path d="M48.51,51.83c-1.7,0-4.2,1.7-5.1,3.4-2.7,5.1-4.7,10.7-7.3,15.9-1.4,2.8-.8,4.4,1.2,6.7,5.3,6,10.9,11.8,15.3,18.5,5.3,7.9,4.6,16.4-2.2,23a66.62,66.62,0,0,1-17.6,12.6c-9.3,4.4-19.4,7.2-29.1,10.9-1.3.5-3.4,2.2-3.6,3.4-.6,3.6,1.4,4.6,2.8,5.2,11.1,4.9,22.4,9.3,34.2,14.1,3.8-5.7,7.6-11,10.9-16.6,18-30.2,22-61.3,5.4-93.5a6.9,6.9,0,0,0-4.9-3.6Z"/><path d="M447.31,12.73l-.4-.4a13.72,13.72,0,0,0-19.4,19.4l.4.4c7.8,7.8,16.5,3,19.4,0A13.64,13.64,0,0,0,447.31,12.73Z"/><path d="M390.31,13.23a13.94,13.94,0,0,0-3.2,4.8l20.8,18a14.8,14.8,0,0,0,2.9-2.2l.4-.4c8.2-8.2,3.1-17.4,0-20.6a14.55,14.55,0,0,0-20.6,0l-.3.4Z"/><path d="M81,3.93s-5.1,10.7-7.4,16.1a16.25,16.25,0,0,0-1.4,7.2c.9,19,1.6,38,3,56.9,1.4,19.3,10.9,33.4,28.8,41.5,12.5,5.7,25.7,8.3,39.3,9.1,17.1,1,34.2,1.5,51.4,1.6,28.5.2,56.7-1.8,84.6-7.4,8.6-1.1,35.5-8.1,40.1-10.6,5.2-2.8,4.9-2.2,10.2-.8,12.8,3.2,46.6,2.5,56.4-.4,6.5-1.9,12.5-3.5,13.9-7.9,6,9.4,9.3,14.2,19.6,13.3s11.2-1.4,21.3-3.7c8.4-1.9,14.7-7.3,17.2-15.5,1.6-5.1,1.4-7.5,1.8-11.3,1.6-13.5-.5-26.2-8.3-37.5-1.3-1.8-2-3.6-6.5-3.3-1.4.1-3.4,2.1-4.3,3.8-2.6,5-4.5,10.4-7,15.4-1.4,2.8-.8,4.8,1.4,6.9,4.7,4.3,9.1,8.7,15,14.7-11.3,1.2-15.2,2.4-24.9,3.2s-27.6.6-32.6-8.2c-3.7-6.5-6-10.9-12-15.3-9.9-7.3-26-7.3-39.4-.4-6.1,3.1-12.4,9.2-13.5,16.5-.5,3.2-1.6,5.9-5.2,6.9-55.5,14.3-120.6,20.9-175.2,14.8-13.9-1.6-27.7-3.9-40.9-9-11.7-4.6-17-12.7-16.8-25.4.4-23.4.1-46.8,0-70.2A4.47,4.47,0,0,0,85.31,0c-2-.4-4.3,4-4.3,3.9Zm300.3,97.2-45.4-.5s3.4-17.9,21.8-18.6c26.6-1.1,23.6,19.1,23.6,19.1Z"/><path d="M18.91,6.13a4.47,4.47,0,0,0-4.3-4.9c-1.8-.2-4.2,4.2-4.2,4.2S5.31,16.13,3,21.53a16.25,16.25,0,0,0-1.4,7.2c.4,9.3.8,18.7,1.3,28h0c.6,13.3,1.3,26.5,1.9,39.8.4,8.2.8,16.3,1.3,24.6h7.5c1.8-9.3,5.1-18.4,5.3-27.6V6.13Z"/><path d="M504.11,48.43a43.29,43.29,0,0,0-9.1,14.4l63.4,52.6a42.18,42.18,0,0,0,8.5-6.9l1.2-1.3c24-25.1,8.3-52.3-1.3-61.5a43.56,43.56,0,0,0-61.5,1.3l-1.2,1.4Z"/><path d="M643.21,119a42.9,42.9,0,1,0-42.9-42.9A42.89,42.89,0,0,0,643.21,119Z"/></svg>