<svg id="Layer_1" data-name="Layer 1" xmlns="http://www.w3.org/2000/svg" viewBox="0 0 706.01 99.63"><title>Tamara En</title><path d="M347.47,22.06c-8.64-3.24-17-4.82-27.52-2.59-8.22,1.73-14.82,5-19.15,13.28,1.91,1.55,3.62,3,5.29,4.48,2.75,2.39,5.61,4.85,9.43,7.71,3-4.31,8.31-9.17,14-9.28,6.57-.13,12.87,3.49,13.91,8.79.42,2.2.71,11.28.71,11.28l-3.45.74a3.09,3.09,0,0,1-2.12,0l-.54-.21-.44-.17a64,64,0,0,0-22.18-4.31,49.85,49.85,0,0,0-7.62.59C300,53.59,290.81,58,291,71.92c.06,5.31,1.17,9.29,3.51,12.53a21.92,21.92,0,0,0,18.38,9.38A35.73,35.73,0,0,0,337,85.45c.14-.11,1.74-1.51,2.21-1.87l4.75-3.68V93.74h19.81V45.37c0-10.95-6-19.42-16.25-23.29Zm-6.12,45.46c-4.23,7.58-11.14,11.86-19.08,11.86h-1a23.72,23.72,0,0,1-5-.63c-5.94-1.56-9.32-6.34-9.07-12.77l.12-2.81h36.42l-2.42,4.35Z"/><path d="M554.4,22.06c-8.64-3.24-17-4.82-27.51-2.59-8.23,1.73-14.83,5-19.15,13.28,1.91,1.55,3.62,3,5.29,4.48,2.76,2.39,5.61,4.85,9.43,7.71,3-4.31,8.32-9.17,14-9.28,6.58-.13,12.87,3.49,13.91,8.79.42,2.2.71,11.28.71,11.28l-3.44.74a3.09,3.09,0,0,1-2.12,0c-.17-.06-.36-.13-.54-.21l-.45-.17a64,64,0,0,0-22.18-4.31,49.85,49.85,0,0,0-7.62.59c-7.74,1.22-17,5.59-16.79,19.55.06,5.31,1.18,9.29,3.51,12.53a21.92,21.92,0,0,0,18.38,9.38,35.75,35.75,0,0,0,24.11-8.38c.13-.11,1.74-1.51,2.2-1.87l4.75-3.68V93.74h19.81V45.37c0-10.95-6-19.42-16.26-23.29Zm-6.12,45.46c-4.22,7.58-11.14,11.86-19.07,11.86h-1a23.54,23.54,0,0,1-5-.63c-6-1.56-9.33-6.34-9.07-12.77l.12-2.81h36.41l-2.43,4.35Z"/><path d="M689.75,22.06c-8.64-3.24-17-4.82-27.52-2.59-8.22,1.73-14.82,5-19.15,13.28,1.91,1.55,3.62,3,5.29,4.48,2.75,2.39,5.61,4.85,9.43,7.71,3-4.31,8.31-9.17,14-9.28,6.58-.13,12.87,3.49,13.91,8.79.42,2.2.71,11.28.71,11.28l-3.45.74a3.06,3.06,0,0,1-2.11,0l-.54-.21-.45-.17a64,64,0,0,0-22.18-4.31,49.85,49.85,0,0,0-7.62.59c-7.74,1.22-16.95,5.59-16.79,19.55.06,5.31,1.17,9.29,3.51,12.53a21.92,21.92,0,0,0,18.38,9.38,35.75,35.75,0,0,0,24.11-8.38c.13-.11,1.74-1.51,2.2-1.87l4.75-3.68V93.74H706V45.37c0-10.95-6-19.42-16.25-23.29Zm-6.12,45.46c-4.23,7.58-11.14,11.86-19.08,11.86h-1a23.72,23.72,0,0,1-5-.63c-5.94-1.56-9.32-6.34-9.07-12.77l.12-2.81H686l-2.4,4.35Z"/><path d="M624.93,24.65c-6.41.29-11,3.09-14,8.61-.33.6-2.47,4.8-2.47,4.8L603.71,37V25.63H584.56V93.87h19.21V67.22c0-2.27-.15-4.61,0-7A17.71,17.71,0,0,1,619.3,43.89c2.68-.38,9.43-.41,10.16-.42V24.62c-1.6,0-3.07,0-4.53,0Z"/><path d="M276.14,77.93a40.44,40.44,0,0,1-5-.4c-5-.83-8.26-3.31-9.63-7.39a16.94,16.94,0,0,1-1-5.31V34.36l3-.13c6.36-.31,13.11-.78,19.51-2.55l-4.08-13.92-18.4,2.73V0H238.73V20.49H224.05V34.54h14.68s0,29,.12,36.37a23.68,23.68,0,0,0,3.76,12.74c2.92,4.44,7.17,7.22,13.38,8.76,6.68,1.64,13.46,1.56,20.62,1.48h1.71V78h-.83l-1.36-.08Z"/><path d="M442.49,55.43c0-6.89,4.64-12.33,10.94-12.92,7.6-.72,12.94,3.08,14.31,10.15a19.7,19.7,0,0,1,.25,3.76V93.78h19.15V47.63A36.85,36.85,0,0,0,486.6,41c-1.59-8.46-6.13-13.62-13.78-15.8-8.29-2.32-22.18-.58-28.63,10.69l-2.94,5.88C439.56,33.33,434.73,27.21,427,25c-8.29-2.32-20.79-.37-27.22,10.9l-2.88,5V25.61h-20V93.86h20v-37a30.49,30.49,0,0,1,.24-3.82,11.61,11.61,0,0,1,8.77-10.15c5.46-1.41,11.14.34,14.11,4.38a14.46,14.46,0,0,1,2.45,8.87v37.7H442.5V55.43Z"/><path d="M9.16,26.54A43.36,43.36,0,0,0,0,40.94L63.51,93.58a43.43,43.43,0,0,0,8.54-6.86l1.24-1.29C97.35,60.32,81.55,33.11,72,24a43.53,43.53,0,0,0-61.49,1.32l-1.3,1.26Z"/><path d="M140.19,99.63a44,44,0,1,0-44-43.95A44,44,0,0,0,140.19,99.63Z"/></svg>